HIERARCHY
ROOT Hips
{
  OFFSET 0.000 63.631 0.000
  CHANNELS 6 Xposition Yposition Zposition Zrotation Xrotation Yrotation
  JOINT LeftUpLeg
  {
    OFFSET 7.284 -0.052 3.451
    CHANNELS 6 Xposition Yposition Zposition Zrotation Xrotation Yrotation
    JOINT LeftLeg
    {
      OFFSET 0.000 -33.358 0.000
      CHANNELS 6 Xposition Yposition Zposition Zrotation Xrotation Yrotation
      JOINT LeftFoot
      {
        OFFSET 0.000 -30.221 0.000
        CHANNELS 6 Xposition Yposition Zposition Zrotation Xrotation Yrotation
        End Site
        {
          OFFSET 0.000 0.000 9.119
        }
      }
    }
  }
  JOINT RightUpLeg
  {
    OFFSET -7.284 -0.052 3.451
    CHANNELS 6 Xposition Yposition Zposition Zrotation Xrotation Yrotation
    JOINT RightLeg
    {
      OFFSET 0.000 -33.358 0.000
      CHANNELS 6 Xposition Yposition Zposition Zrotation Xrotation Yrotation
      JOINT RightFoot
      {
        OFFSET 0.000 -30.221 0.000
        CHANNELS 6 Xposition Yposition Zposition Zrotation Xrotation Yrotation
        End Site
        {
          OFFSET 0.000 0.000 9.119
        }
      }
    }
  }
  JOINT Spine
  {
    OFFSET 0.000 29.748 0.000
    CHANNELS 6 Xposition Yposition Zposition Zrotation Xrotation Yrotation
    JOINT Spine1
    {
      OFFSET 0.000 21.378 0.000
      CHANNELS 6 Xposition Yposition Zposition Zrotation Xrotation Yrotation
      JOINT LeftShoulder
      {
        OFFSET 1.517 -0.350 0.156
        CHANNELS 6 Xposition Yposition Zposition Zrotation Xrotation Yrotation
        JOINT LeftArm
        {
          OFFSET 14.040 0.000 0.000
          CHANNELS 6 Xposition Yposition Zposition Zrotation Xrotation Yrotation
          JOINT LeftForeArm
          {
            OFFSET 24.137 0.000 0.000
            CHANNELS 6 Xposition Yposition Zposition Zrotation Xrotation Yrotation
            JOINT LeftHand
            {
              OFFSET 22.017 0.000 0.000
              CHANNELS 6 Xposition Yposition Zposition Zrotation Xrotation Yrotation
              JOINT LeftHandThumb1
              {
                OFFSET 4.877 -1.044 3.608
                CHANNELS 6 Xposition Yposition Zposition Zrotation Xrotation Yrotation
                JOINT LeftHandThumb2
                {
                  OFFSET 2.665 -0.000 -0.000
                  CHANNELS 6 Xposition Yposition Zposition Zrotation Xrotation Yrotation
                  JOINT LeftHandThumb3
                  {
                    OFFSET 2.543 0.000 0.000
                    CHANNELS 6 Xposition Yposition Zposition Zrotation Xrotation Yrotation
                    End Site
                    {
                      OFFSET 2.667 -0.000 -0.000
                    }
                  }
                }
              }
              JOINT LeftHandIndex1
              {
                OFFSET 9.232 -0.301 2.144
                CHANNELS 6 Xposition Yposition Zposition Zrotation Xrotation Yrotation
                JOINT LeftHandIndex2
                {
                  OFFSET 4.225 -0.000 0.000
                  CHANNELS 6 Xposition Yposition Zposition Zrotation Xrotation Yrotation
                  JOINT LeftHandIndex3
                  {
                    OFFSET 2.654 -0.000 -0.000
                    CHANNELS 6 Xposition Yposition Zposition Zrotation Xrotation Yrotation
                    End Site
                    {
                      OFFSET 1.958 -0.000 0.000
                    }
                  }
                }
              }
              JOINT LeftHandMiddle1
              {
                OFFSET 8.920 0.000 -0.000
                CHANNELS 6 Xposition Yposition Zposition Zrotation Xrotation Yrotation
                JOINT LeftHandMiddle2
                {
                  OFFSET 4.863 -0.000 0.000
                  CHANNELS 6 Xposition Yposition Zposition Zrotation Xrotation Yrotation
                  JOINT LeftHandMiddle3
                  {
                    OFFSET 2.765 -0.000 -0.000
                    CHANNELS 6 Xposition Yposition Zposition Zrotation Xrotation Yrotation
                    End Site
                    {
                      OFFSET 2.006 -0.000 0.000
                    }
                  }
                }
              }
              JOINT LeftHandRing1
              {
                OFFSET 8.689 -0.126 -2.087
                CHANNELS 6 Xposition Yposition Zposition Zrotation Xrotation Yrotation
                JOINT LeftHandRing2
                {
                  OFFSET 4.538 0.000 0.000
                  CHANNELS 6 Xposition Yposition Zposition Zrotation Xrotation Yrotation
                  JOINT LeftHandRing3
                  {
                    OFFSET 2.305 -0.000 -0.000
                    CHANNELS 6 Xposition Yposition Zposition Zrotation Xrotation Yrotation
                    End Site
                    {
                      OFFSET 1.923 -0.000 0.000
                    }
                  }
                }
              }
              JOINT LeftHandPinky1
              {
                OFFSET 8.391 -0.817 -3.758
                CHANNELS 6 Xposition Yposition Zposition Zrotation Xrotation Yrotation
                JOINT LeftHandPinky2
                {
                  OFFSET 3.044 -0.000 0.000
                  CHANNELS 6 Xposition Yposition Zposition Zrotation Xrotation Yrotation
                  JOINT LeftHandPinky3
                  {
                    OFFSET 1.975 -0.000 0.000
                    CHANNELS 6 Xposition Yposition Zposition Zrotation Xrotation Yrotation
                    End Site
                    {
                      OFFSET 1.667 -0.000 0.000
                    }
                  }
                }
              }
            }
          }
        }
      }
      JOINT RightShoulder
      {
        OFFSET -1.517 -0.350 0.156
        CHANNELS 6 Xposition Yposition Zposition Zrotation Xrotation Yrotation
        JOINT RightArm
        {
          OFFSET -14.040 0.000 0.000
          CHANNELS 6 Xposition Yposition Zposition Zrotation Xrotation Yrotation
          JOINT RightForeArm
          {
            OFFSET -24.137 0.000 0.000
            CHANNELS 6 Xposition Yposition Zposition Zrotation Xrotation Yrotation
            JOINT RightHand
            {
              OFFSET -22.017 0.000 0.000
              CHANNELS 6 Xposition Yposition Zposition Zrotation Xrotation Yrotation
              JOINT RightHandThumb1
              {
                OFFSET -4.877 -1.044 3.608
                CHANNELS 6 Xposition Yposition Zposition Zrotation Xrotation Yrotation
                JOINT RightHandThumb2
                {
                  OFFSET -2.665 0.000 0.000
                  CHANNELS 6 Xposition Yposition Zposition Zrotation Xrotation Yrotation
                  JOINT RightHandThumb3
                  {
                    OFFSET -2.543 0.000 0.000
                    CHANNELS 6 Xposition Yposition Zposition Zrotation Xrotation Yrotation
                    End Site
                    {
                      OFFSET -2.667 0.000 -0.000
                    }
                  }
                }
              }
              JOINT RightHandIndex1
              {
                OFFSET -9.232 -0.301 2.144
                CHANNELS 6 Xposition Yposition Zposition Zrotation Xrotation Yrotation
                JOINT RightHandIndex2
                {
                  OFFSET -4.225 0.000 0.000
                  CHANNELS 6 Xposition Yposition Zposition Zrotation Xrotation Yrotation
                  JOINT RightHandIndex3
                  {
                    OFFSET -2.654 -0.000 -0.000
                    CHANNELS 6 Xposition Yposition Zposition Zrotation Xrotation Yrotation
                    End Site
                    {
                      OFFSET -1.958 0.000 0.000
                    }
                  }
                }
              }
              JOINT RightHandMiddle1
              {
                OFFSET -8.920 0.000 0.000
                CHANNELS 6 Xposition Yposition Zposition Zrotation Xrotation Yrotation
                JOINT RightHandMiddle2
                {
                  OFFSET -4.863 -0.000 0.000
                  CHANNELS 6 Xposition Yposition Zposition Zrotation Xrotation Yrotation
                  JOINT RightHandMiddle3
                  {
                    OFFSET -2.765 -0.000 0.000
                    CHANNELS 6 Xposition Yposition Zposition Zrotation Xrotation Yrotation
                    End Site
                    {
                      OFFSET -2.006 -0.000 0.000
                    }
                  }
                }
              }
              JOINT RightHandRing1
              {
                OFFSET -8.689 -0.126 -2.087
                CHANNELS 6 Xposition Yposition Zposition Zrotation Xrotation Yrotation
                JOINT RightHandRing2
                {
                  OFFSET -4.538 0.000 0.000
                  CHANNELS 6 Xposition Yposition Zposition Zrotation Xrotation Yrotation
                  JOINT RightHandRing3
                  {
                    OFFSET -2.305 -0.000 0.000
                    CHANNELS 6 Xposition Yposition Zposition Zrotation Xrotation Yrotation
                    End Site
                    {
                      OFFSET -1.923 0.000 0.000
                    }
                  }
                }
              }
              JOINT RightHandPinky1
              {
                OFFSET -8.391 -0.817 -3.758
                CHANNELS 6 Xposition Yposition Zposition Zrotation Xrotation Yrotation
                JOINT RightHandPinky2
                {
                  OFFSET -3.044 0.000 0.000
                  CHANNELS 6 Xposition Yposition Zposition Zrotation Xrotation Yrotation
                  JOINT RightHandPinky3
                  {
                    OFFSET -1.975 0.000 0.000
                    CHANNELS 6 Xposition Yposition Zposition Zrotation Xrotation Yrotation
                    End Site
                    {
                      OFFSET -1.667 0.000 -0.000
                    }
                  }
                }
              }
            }
          }
        }
      }
      JOINT Neck
      {
        OFFSET 0.000 0.686 0.000
        CHANNELS 6 Xposition Yposition Zposition Zrotation Xrotation Yrotation
        JOINT Head
        {
          OFFSET 0.000 6.262 0.000
          CHANNELS 6 Xposition Yposition Zposition Zrotation Xrotation Yrotation
          End Site
          {
            OFFSET 0.000 14.066 0.000
          }
        }
      }
    }
  }
}
MOTION
Frames:	4
Frame Time:	0.033333
13.02048 74.40354 -168.67096 0.65269 -4.18593 -0.18126 7.42858 -0.37271 3.54354 11.01822 -1.95491 16.06694 0.00222 -32.78822 0.00185 0.77267 14.98587 -19.66480 0.00468 -32.10815 -0.00204 0.33668 4.63457 -4.20999 -7.95881 -0.31054 3.54299 -13.29357 5.44655 -17.23165 -0.00057 -32.90583 -0.00599 2.38111 6.42949 16.33052 -0.00485 -32.18789 -0.00326 -0.27943 7.29498 2.21868 -0.00068 29.06442 -0.00018 0.08838 1.60529 -1.44494 -0.00476 20.88200 -0.00148 0.10621 2.19877 -1.35523 1.32871 -0.24809 0.19663 -10.35739 1.50863 -8.19621 12.29555 0.00387 0.00644 10.85992 -7.62838 -58.42392 22.94295 -0.00049 0.00675 45.16306 18.05173 -40.49822 22.31611 0.02773 -0.00592 2.76040 5.82514 13.00548 4.87700 -1.04401 3.60799 -41.57510 -8.45632 -7.72863 2.66498 -0.00001 -0.00001 0.00000 0.00000 4.99908 2.54301 0.00000 0.00001 0.00000 0.00000 59.99900 9.23200 -0.30100 2.14401 -79.99917 0.00000 -0.00000 4.22500 -0.00001 0.00000 -89.99905 0.00000 -0.00000 2.65400 -0.00001 -0.00001 -69.99928 0.00000 0.00000 8.92000 0.00000 -0.00001 -79.99917 0.00000 -0.00000 4.86299 -0.00001 0.00001 -89.99905 0.00000 -0.00000 2.76500 -0.00001 -0.00001 -69.99928 0.00000 0.00000 8.68900 -0.12602 -2.08700 -79.99917 0.00000 -0.00000 4.53800 0.00000 0.00001 -89.99905 0.00000 -0.00000 2.30499 -0.00002 -0.00001 -69.99928 0.00000 0.00000 8.39100 -0.81701 -3.75800 -79.99917 0.00000 -0.00000 3.04400 -0.00001 0.00001 -89.99905 0.00000 -0.00000 1.97500 -0.00001 0.00000 -69.99928 0.00000 0.00000 -1.26023 -0.34758 0.19816 15.11851 2.30498 8.45449 -11.88276 0.00333 0.00075 -32.71663 -6.17790 61.87419 -23.10059 -0.00013 0.00945 -33.84131 32.95341 24.48873 -22.37000 0.03205 -0.01673 -20.53135 27.40865 5.63526 -4.87701 -1.04401 3.60800 37.43800 21.26584 8.20598 -2.66500 0.00002 0.00000 -0.00000 0.00000 -5.00000 -2.54301 0.00002 0.00000 0.00000 -0.00000 -60.00000 -9.23201 -0.30099 2.14401 79.99944 0.00000 -0.00000 -4.22500 0.00000 0.00000 89.99937 -0.00000 -0.00000 -2.65399 -0.00001 -0.00001 69.99950 -0.00000 0.00000 -8.92001 0.00000 0.00001 80.00000 -0.00000 0.00000 -4.86300 -0.00001 0.00000 90.00000 -0.00000 0.00001 -2.76500 -0.00001 0.00001 69.99999 -0.00000 0.00000 -8.68900 -0.12600 -2.08701 80.00000 -0.00000 0.00000 -4.53800 0.00000 0.00000 90.00000 -0.00000 0.00001 -2.30501 -0.00001 0.00000 69.99999 -0.00000 0.00000 -8.39101 -0.81700 -3.75800 79.99944 0.00000 -0.00000 -3.04401 0.00001 0.00002 89.99937 -0.00000 -0.00000 -1.97501 0.00001 0.00000 69.99950 -0.00000 0.00000 -0.00081 0.67229 0.00050 -0.00001 -0.00004 -0.00026 0.00257 6.03799 0.00506 0.82544 -3.22460 -2.66652 
13.01999 74.39915 -168.65778 0.66007 -4.17089 -0.19112 7.43203 -0.37208 3.54363 11.00934 -1.96901 16.06485 0.00224 -32.77921 0.00183 0.77502 15.00738 -19.68815 0.00466 -32.10818 -0.00202 0.33669 4.60924 -4.23219 -7.96007 -0.30974 3.54311 -13.30436 5.44255 -17.23096 -0.00060 -32.90657 -0.00597 2.39062 6.42317 16.30388 -0.00484 -32.18764 -0.00323 -0.27623 7.30341 2.19104 -0.00068 29.06579 -0.00018 0.09523 1.61911 -1.47558 -0.00473 20.88440 -0.00148 0.10716 2.19955 -1.38286 1.33199 -0.25007 0.19606 -10.41434 1.49945 -8.10205 12.32365 0.00380 0.00637 10.41221 -7.70583 -58.46154 22.94437 -0.00110 0.00683 46.75519 19.06438 -41.00093 22.30898 0.02580 -0.00512 0.21724 7.84330 13.69317 4.87700 -1.04401 3.60799 -41.57513 -8.45635 -7.72865 2.66498 -0.00001 -0.00001 0.00000 0.00000 4.99911 2.54301 0.00000 0.00001 0.00000 0.00000 59.99903 9.23200 -0.30100 2.14401 -79.99920 0.00000 -0.00000 4.22500 -0.00001 0.00000 -89.99909 0.00000 -0.00000 2.65400 -0.00001 -0.00001 -69.99930 0.00000 0.00000 8.92000 0.00000 -0.00001 -79.99920 0.00000 -0.00000 4.86299 -0.00001 0.00001 -89.99909 0.00000 -0.00000 2.76500 -0.00001 -0.00001 -69.99930 0.00000 0.00000 8.68900 -0.12602 -2.08700 -79.99920 0.00000 -0.00000 4.53800 0.00000 0.00001 -89.99909 0.00000 -0.00000 2.30499 -0.00002 -0.00001 -69.99930 0.00000 0.00000 8.39100 -0.81701 -3.75800 -79.99920 0.00000 -0.00000 3.04400 -0.00001 0.00001 -89.99909 0.00000 -0.00000 1.97500 -0.00001 0.00000 -69.99930 0.00000 0.00000 -1.25780 -0.35247 0.19775 15.34734 2.32157 8.38456 -11.87175 0.00328 0.00079 -32.66066 -6.32848 62.12766 -23.18543 -0.00062 0.00951 -34.64864 33.34818 24.51561 -22.36438 0.03104 -0.01427 -20.94043 27.10383 5.63493 -4.87701 -1.04401 3.60800 37.43801 21.26588 8.20602 -2.66500 0.00002 0.00000 -0.00000 0.00000 -5.00000 -2.54301 0.00002 0.00000 0.00000 -0.00000 -60.00000 -9.23201 -0.30099 2.14401 79.99949 0.00000 -0.00000 -4.22500 0.00000 0.00000 89.99942 -0.00000 -0.00000 -2.65399 -0.00001 -0.00001 69.99953 -0.00000 0.00000 -8.92001 0.00000 0.00001 80.00000 -0.00000 0.00000 -4.86300 -0.00001 0.00000 90.00000 -0.00000 0.00001 -2.76500 -0.00001 0.00001 69.99999 -0.00000 0.00000 -8.68900 -0.12600 -2.08701 80.00000 -0.00000 0.00000 -4.53800 0.00000 0.00000 90.00000 -0.00000 0.00001 -2.30501 -0.00001 0.00000 69.99999 -0.00000 0.00000 -8.39101 -0.81700 -3.75800 79.99949 0.00000 -0.00000 -3.04401 0.00001 0.00002 89.99942 -0.00000 -0.00000 -1.97501 0.00001 0.00000 69.99953 -0.00000 0.00000 -0.00081 0.67221 0.00050 -0.00001 -0.00004 -0.00026 0.00255 6.03913 0.00501 0.78127 -3.43956 -2.55723 
13.01956 74.39331 -168.64394 0.66659 -4.15887 -0.21089 7.43562 -0.37147 3.54372 11.00270 -1.97418 16.06711 0.00227 -32.76863 0.00181 0.77421 15.02559 -19.71390 0.00465 -32.10823 -0.00201 0.33638 4.58319 -4.25132 -7.96129 -0.30895 3.54323 -13.31395 5.43972 -17.22325 -0.00063 -32.90722 -0.00596 2.39984 6.41381 16.27634 -0.00483 -32.18740 -0.00320 -0.27344 7.31389 2.16604 -0.00068 29.06725 -0.00018 0.10030 1.63022 -1.50204 -0.00471 20.88763 -0.00148 0.10789 2.20039 -1.40614 1.33550 -0.25196 0.19555 -10.46674 1.49158 -8.01939 12.35029 0.00373 0.00630 9.73098 -7.77711 -58.50393 22.94582 -0.00172 0.00692 48.20789 19.79566 -41.53309 22.30092 0.02350 -0.00443 -3.00651 9.49331 13.31242 4.87700 -1.04401 3.60799 -41.57515 -8.45638 -7.72866 2.66498 -0.00001 -0.00001 0.00000 0.00000 4.99914 2.54301 0.00000 0.00001 0.00000 0.00000 59.99906 9.23200 -0.30100 2.14401 -79.99922 0.00000 -0.00000 4.22500 -0.00001 0.00000 -89.99912 0.00000 -0.00000 2.65400 -0.00001 -0.00001 -69.99932 0.00000 0.00000 8.92000 0.00000 -0.00001 -79.99922 0.00000 -0.00000 4.86299 -0.00001 0.00001 -89.99912 0.00000 -0.00000 2.76500 -0.00001 -0.00001 -69.99932 0.00000 0.00000 8.68900 -0.12602 -2.08700 -79.99922 0.00000 -0.00000 4.53800 0.00000 0.00001 -89.99912 0.00000 -0.00000 2.30499 -0.00002 -0.00001 -69.99932 0.00000 0.00000 8.39100 -0.81701 -3.75800 -79.99922 0.00000 -0.00000 3.04400 -0.00001 0.00001 -89.99912 0.00000 -0.00000 1.97500 -0.00001 0.00000 -69.99932 0.00000 0.00000 -1.25538 -0.35730 0.19603 15.57636 2.34048 8.32514 -11.86127 0.00323 0.00083 -32.35483 -6.49989 62.46222 -23.30618 -0.00112 0.00958 -35.66863 33.94934 24.60619 -22.35739 0.03001 -0.01244 -21.09025 26.82101 6.55044 -4.87701 -1.04401 3.60800 37.43802 21.26591 8.20607 -2.66500 0.00002 0.00000 -0.00000 0.00000 -5.00000 -2.54301 0.00002 0.00000 0.00000 -0.00000 -60.00000 -9.23201 -0.30099 2.14401 79.99953 0.00000 -0.00000 -4.22500 0.00000 0.00000 89.99947 -0.00000 -0.00000 -2.65399 -0.00001 -0.00001 69.99958 -0.00000 0.00000 -8.92001 0.00000 0.00001 80.00000 -0.00000 0.00000 -4.86300 -0.00001 0.00000 90.00000 -0.00000 0.00001 -2.76500 -0.00001 0.00001 69.99999 -0.00000 0.00000 -8.68900 -0.12600 -2.08701 80.00000 -0.00000 0.00000 -4.53800 0.00000 0.00000 90.00000 -0.00000 0.00001 -2.30501 -0.00001 0.00000 69.99999 -0.00000 0.00000 -8.39101 -0.81700 -3.75800 79.99953 0.00000 -0.00000 -3.04401 0.00001 0.00002 89.99947 -0.00000 -0.00000 -1.97501 0.00001 0.00000 69.99958 -0.00000 0.00000 -0.00081 0.67213 0.00050 -0.00001 -0.00004 -0.00026 0.00254 6.04028 0.00496 0.74833 -3.62707 -2.42728 
13.01920 74.38463 -168.62120 0.67410 -4.15269 -0.23448 7.43985 -0.37088 3.54382 10.99227 -1.96567 16.07007 0.00230 -32.75688 0.00179 0.77573 15.04003 -19.73480 0.00463 -32.10828 -0.00199 0.33502 4.55191 -4.26253 -7.96248 -0.30819 3.54335 -13.32750 5.45291 -17.22792 -0.00067 -32.90808 -0.00594 2.41217 6.39660 16.26340 -0.00481 -32.18716 -0.00317 -0.27160 7.32117 2.14950 -0.00067 29.06882 -0.00018 0.10367 1.63851 -1.52294 -0.00468 20.89103 -0.00148 0.10836 2.20118 -1.42388 1.33757 -0.25343 0.19510 -10.50715 1.48003 -7.92737 12.37391 0.00366 0.00623 8.87088 -7.82244 -58.59079 22.94729 -0.00236 0.00701 49.31868 20.18262 -41.99386 22.29525 0.01772 -0.00384 -5.93838 10.59401 12.48550 4.87700 -1.04401 3.60799 -41.57519 -8.45642 -7.72868 2.66498 -0.00001 -0.00001 0.00000 0.00000 4.99917 2.54301 0.00000 0.00001 0.00000 0.00000 59.99910 9.23200 -0.30100 2.14401 -79.99925 0.00000 -0.00000 4.22500 -0.00001 0.00000 -89.99915 0.00000 -0.00000 2.65400 -0.00001 -0.00001 -69.99935 0.00000 0.00000 8.92000 0.00000 -0.00001 -79.99925 0.00000 -0.00000 4.86299 -0.00001 0.00001 -89.99915 0.00000 -0.00000 2.76500 -0.00001 -0.00001 -69.99935 0.00000 0.00000 8.68900 -0.12602 -2.08700 -79.99925 0.00000 -0.00000 4.53800 0.00000 0.00001 -89.99915 0.00000 -0.00000 2.30499 -0.00002 -0.00001 -69.99935 0.00000 0.00000 8.39100 -0.81701 -3.75800 -79.99925 0.00000 -0.00000 3.04400 -0.00001 0.00001 -89.99915 0.00000 -0.00000 1.97500 -0.00001 0.00000 -69.99935 0.00000 0.00000 -1.25308 -0.36205 0.19569 15.80084 2.35418 8.25277 -11.85115 0.00318 0.00087 -31.80410 -6.68910 62.89070 -23.45870 -0.00162 0.00965 -36.88564 34.75002 24.76373 -22.34928 0.02900 -0.01153 -21.17280 26.53188 8.27734 -4.87701 -1.04401 3.60800 37.43802 21.26594 8.20612 -2.66500 0.00002 0.00000 -0.00000 0.00000 -5.00000 -2.54301 0.00002 0.00000 0.00000 -0.00000 -60.00000 -9.23201 -0.30099 2.14401 79.99957 0.00000 -0.00000 -4.22500 0.00000 0.00000 89.99952 -0.00000 -0.00000 -2.65399 -0.00001 -0.00001 69.99962 -0.00000 0.00000 -8.92001 0.00000 0.00001 80.00000 -0.00000 0.00000 -4.86300 -0.00001 0.00000 90.00000 -0.00000 0.00001 -2.76500 -0.00001 0.00001 69.99999 -0.00000 0.00000 -8.68900 -0.12600 -2.08701 80.00000 -0.00000 0.00000 -4.53800 0.00000 0.00000 90.00000 -0.00000 0.00001 -2.30501 -0.00001 0.00000 69.99999 -0.00000 0.00000 -8.39101 -0.81700 -3.75800 79.99957 0.00000 -0.00000 -3.04401 0.00001 0.00002 89.99952 -0.00000 -0.00000 -1.97501 0.00001 0.00000 69.99962 -0.00000 0.00000 -0.00081 0.67206 0.00050 -0.00001 -0.00004 -0.00026 0.00253 6.04136 0.00491 0.71566 -3.81133 -2.60142 
